<svg xmlns="http://www.w3.org/2000/svg" viewBox="0 0 512 512">
  <rect width="512" height="512" rx="112" fill="#3B2366"/>
  <g transform="translate(64 60) scale(6)">
    <path d="M13 25a19 19 0 0 1 38 0" fill="none" stroke="#E2C27A" stroke-width="1.5" stroke-linecap="round" opacity=".5"/>
    <path d="M19.5 25a12.5 12.5 0 0 1 25 0" fill="none" stroke="#E2C27A" stroke-width="1.5" stroke-linecap="round"/>
    <path d="M32 46C22.5 45.5 14.5 39.5 12.5 29c8.4.6 15.5 6.2 19.5 17z" fill="#B9A6DB"/>
    <path d="M32 46c9.5-.5 17.5-6.5 19.5-17-8.4.6-15.5 6.2-19.5 17z" fill="#B9A6DB"/>
    <path d="M32 46c-6.4-6-8.4-13.4-6.2-21.2C27.6 20.6 29.7 17.8 32 15c2.3 2.8 4.4 5.6 6.2 9.8 2.2 7.8.2 15.2-6.2 21.2z" fill="#FCFAF6"/>
    
    <rect x="10" y="49" width="44" height="3.4" rx="1.7" fill="#FCFAF6"/>
    <rect x="17" y="54.6" width="30" height="2.2" rx="1.1" fill="#E2C27A"/>
  </g>
</svg>
